<?xml version="1.0" encoding="utf-8"?>
<!-- Generator: Adobe Illustrator 20.1.0, SVG Export Plug-In . SVG Version: 6.00 Build 0)  -->
<svg version="1.1" id="Layer_1" xmlns="http://www.w3.org/2000/svg" xmlns:xlink="http://www.w3.org/1999/xlink" x="0px" y="0px"
	 viewBox="0 0 315.7 389.7" style="enable-background:new 0 0 315.7 389.7;" xml:space="preserve">
<style type="text/css">
	.st0{fill:#414042;}
	.st1{fill:#AB6CAD;}
	.st2{fill:#B29BCA;}
	.st3{fill:#9175B5;}
	.st4{fill:#FFFFFF;}
	.st5{fill:#828282;}
	.st6{fill:#FFFFFF;stroke:#00ACC1;stroke-width:3;stroke-miterlimit:10;}
	.st7{fill:none;stroke:#00ACC1;stroke-width:3;stroke-miterlimit:10;}
	.st8{fill:#00ACC1;}
	.st9{fill:#E6E7E8;}
	.st10{fill:#89D3E1;}
	.st11{fill:#13BCD4;}
	.st12{fill:#C6E0A6;}
	.st13{fill:#81C785;}
	.st14{fill:#FACDD2;}
	.st15{fill:#EF9A9B;}
	.st16{fill:#1A92D1;}
	.st17{fill:#086DB6;}
	.st18{fill:#4DAF4E;}
	.st19{fill:#783393;}
	.st20{fill:#F06492;}
	.st21{fill:#E71F64;}
	.st22{fill:#4EAF4C;}
	.st23{fill:#FBCED2;}
	.st24{fill:#EF9A9C;}
	.st25{fill:#FBCFD3;}
	.st26{fill:#EF9A9D;}
	.st27{fill:#4FAF4A;}
	.st28{fill:#C6E1A7;}
	.st29{fill:#B19ACA;}
	.st30{fill:#FFFFFF;stroke:#BCBEC0;stroke-width:3;stroke-miterlimit:10;}
	.st31{fill:none;stroke:#BCBEC0;stroke-width:3;stroke-miterlimit:10;}
	.st32{fill:#BCBEC0;}
	.st33{fill:#424142;}
	.st34{fill:#FFFFFF;stroke:#FFFFFF;stroke-miterlimit:10;}
</style>
<g>
	<path class="st9" d="M39.7,307.2H48v-44h-8.3v-2.6h21.5c12.7,0,25.6,7.3,25.6,24.6c0,17.3-12.8,24.5-25.6,24.5H39.7V307.2z
		 M61.4,307.2c12.7,0,22.4-7.9,22.4-21.9c0-14.1-9.7-22-22.4-22H50.9v44H61.4z"/>
	<path class="st9" d="M91,301c0-8.8,9.2-10.4,15.1-10.4h8.6v-3.6c0-7-2.6-9.4-9.1-9.4c-4.4,0-8.6,1.1-11.8,2.4v-2.5
		c3.6-1.5,7.9-2.4,12.1-2.4c8.2,0,11.5,3.7,11.5,11.5v20.9h6.7v2.4h-9.4v-4.6c-3,2.4-7.8,5.5-13.2,5.5C95.9,310.6,91,307.5,91,301z
		 M114.6,302.2V293h-8.6c-5.3,0-12.3,1.2-12.3,8c0,4.8,3.6,7.2,8,7.2C107,308.1,111.6,304.9,114.6,302.2z"/>
	<path class="st9" d="M127.6,278.3h-5.4v-2.4h15.6v2.4h-7.3l8.6,26.9l10.4-29.4h2.5l10.4,29.4l8.6-26.9h-7.3v-2.4h15.6v2.4h-5.4
		l-10.3,31.5h-2.1L150.7,280l-10.6,29.8H138L127.6,278.3z"/>
	<path class="st9" d="M180.9,308.6v-7.8h2.5v6c2.7,0.8,6.1,1.4,9.2,1.4c5.2,0,10.2-1.6,10.2-6.5c0-10-21.1-5.4-21.1-17.7
		c0-5.6,4.3-9,11.9-9c3.5,0,7.4,0.7,10.4,1.7v7.7h-2.6v-5.9c-2.1-0.6-5.2-1-7.8-1c-5.8,0-9.3,2.3-9.3,6.4c0,10,21.1,5.2,21.1,17.7
		c0,6.5-5.7,9-12.7,9C188.9,310.6,184.5,309.8,180.9,308.6z"/>
	<path class="st9" d="M210.1,292.8c0-11.4,7.2-17.8,16.1-17.8c9,0,16.1,6.5,16.1,17.8c0,11.5-7.2,17.8-16.1,17.8
		S210.1,304.3,210.1,292.8z M239.5,292.8c0-9.6-5.3-15.3-13.3-15.3s-13.3,5.7-13.3,15.3c0,9.6,5.3,15.3,13.3,15.3
		S239.5,302.4,239.5,292.8z"/>
	<path class="st9" d="M246.1,307.3h6.9v-29h-6.9v-2.4h9.6v5.6c4.2-4,9.1-6.5,14-6.5c6.1,0,9.8,3.8,9.8,11.2v21.1h6.9v2.4H270v-2.4
		h6.9v-20.7c0-5.4-1.9-9.2-7.5-9.2c-5.3,0-10.1,3.5-13.6,6.9v23h6.9v2.4h-16.5V307.3z"/>
	<path class="st9" d="M38.2,351.8h3.5v-18.6h-3.5v-1.8h17.5v6.4h-2v-4.5h-9.8v8.7h9.3v1.8h-9.3v8H48v1.8h-9.8V351.8z"/>
	<path class="st9" d="M56.7,349.5c0-3.9,3.9-4.7,7-4.7h3.5v-1.5c0-2.8-1.1-3.8-3.9-3.8c-1.9,0-3.9,0.5-5.3,1v-1.7
		c1.6-0.6,3.7-1.1,5.7-1.1c3.9,0,5.7,1.6,5.7,5.4v8.8h2.8v1.7h-4.9v-2c-1.2,1.1-3.3,2.4-5.7,2.4C58.9,354,56.7,352.5,56.7,349.5z
		 M67.2,349.9v-3.7h-3.4c-2.3,0-4.9,0.5-4.9,3.2c0,1.8,1.3,2.9,3.2,2.9C64.1,352.3,66,351,67.2,349.9z"/>
	<path class="st9" d="M73.6,351.9h2.8v-12h-2.8v-1.8h4.8v2.2c1.5-1.4,3.3-2.6,5.6-2.6c1.8,0,3.4,0.7,4.1,2.8
		c1.5-1.5,3.4-2.8,5.8-2.8c2.3,0,4.3,1.2,4.3,4.8v9.4h2.8v1.7h-7.7v-1.7h2.8v-9.1c0-2.2-0.8-3.3-2.8-3.3c-1.9,0-3.5,1-5.1,2.5
		c0,0.2,0,0.4,0,0.7v9.2h2.8v1.7h-7.7v-1.7h2.8v-9.1c0-2.2-0.8-3.3-2.8-3.3c-1.9,0-3.5,1.1-5,2.5v9.9h2.8v1.7h-7.7V351.9z"/>
	<path class="st9" d="M102.8,351.9h2.9v-12h-2.9v-1.8h5v13.8h2.9v1.7h-7.9V351.9z M106.5,330.7c1,0,1.7,0.8,1.7,1.7
		c0,1-0.8,1.7-1.7,1.7c-0.9,0-1.7-0.8-1.7-1.7C104.8,331.5,105.6,330.7,106.5,330.7z"/>
	<path class="st9" d="M111.9,351.9h2.9v-22.4h-2.9v-1.8h5v24.1h2.9v1.7h-7.9V351.9z"/>
	<path class="st9" d="M121.2,360.2l0.6-1.5c0.8,0.5,1.6,0.9,2.7,0.9c1.5,0,2.6-0.8,3.2-2.4l1.3-3.5h-1.7l-4.6-13.7h-2.3v-1.8h7.4
		v1.7h-2.9l4.3,13.3l4.9-13.3h-2.9v-1.7h7.3v1.8h-2.3l-6.7,17.8c-0.8,2.2-2.4,3.6-4.8,3.6C123.3,361.3,122.1,360.8,121.2,360.2z"/>
	<path class="st9" d="M147.3,351.8h3.5v-18.6h-3.5v-1.8h10c6.5,0,11.7,3.7,11.7,11.1c0,7.5-5.2,11.1-11.7,11.1h-10V351.8z
		 M157.4,351.8c5.6,0,9.4-3.4,9.4-9.3c0-5.9-3.8-9.3-9.4-9.3H153v18.6H157.4z"/>
	<path class="st9" d="M172.1,345.9c0-4.9,2.8-8.2,7.2-8.2c4.8,0,6.7,4.1,6.7,7.6c0,0.3,0,0.7-0.1,1h-11.7c0.1,3.7,2.2,5.9,5.7,5.9
		c1.9,0,3.8-0.7,5.2-1.6v1.8c-1.4,0.8-3.1,1.5-5.4,1.5C174.8,354,172.1,350.7,172.1,345.9z M174.2,344.7h9.6
		c-0.1-2.7-1.4-5.4-4.6-5.4C176.3,339.4,174.5,341.6,174.2,344.7z"/>
	<path class="st9" d="M188.3,351.9h2.9v-12h-2.9v-1.8h5v2.4c1.8-1.7,3.9-2.8,6.2-2.8c2.8,0,4.5,1.7,4.5,5v9.1h2.9v1.7H199v-1.7h2.9
		V343c0-2.1-0.7-3.5-3-3.5c-2.2,0-4.1,1.4-5.6,2.7v9.7h2.9v1.7h-7.9V351.9z"/>
	<path class="st9" d="M210.6,349.5v-9.7h-2.7v-1.8h2.7v-4h2.1v4h5v1.8h-5v9.6c0,2,0.9,2.8,2.8,2.8c1,0,1.8-0.2,2.4-0.4v1.6
		c-1,0.3-1.7,0.5-2.9,0.5C213.3,354,210.6,353.4,210.6,349.5z"/>
	<path class="st9" d="M219.5,351.9h2.9v-12h-2.9v-1.8h5v13.8h2.9v1.7h-7.9V351.9z M223.1,330.7c1,0,1.7,0.8,1.7,1.7
		c0,1-0.8,1.7-1.7,1.7c-0.9,0-1.7-0.8-1.7-1.7C221.5,331.5,222.2,330.7,223.1,330.7z"/>
	<path class="st9" d="M229.5,353.1v-3.8h1.8v2.5c1.1,0.3,2.5,0.5,3.8,0.5c2.2,0,4-0.7,4-2.5c0-4-9.3-2.1-9.3-7.8
		c0-2.6,2-4.3,5.7-4.3c1.8,0,3.7,0.4,5,0.8v3.8h-1.8v-2.5c-0.9-0.2-2.1-0.4-3.1-0.4c-2.4,0-3.7,1-3.7,2.5c0,4.1,9.3,2,9.3,7.8
		c0,2.7-2.2,4.3-6,4.3C233.2,354,231,353.6,229.5,353.1z"/>
	<path class="st9" d="M245.8,349.5v-9.7h-2.7v-1.8h2.7v-4h2.1v4h5v1.8h-5v9.6c0,2,0.9,2.8,2.8,2.8c1,0,1.8-0.2,2.4-0.4v1.6
		c-1,0.3-1.7,0.5-2.9,0.5C248.5,354,245.8,353.4,245.8,349.5z"/>
	<path class="st9" d="M254.7,351.9h2.9v-12h-2.9v-1.8h5v3.3c1.2-1.8,3.1-3.7,5.9-3.7h0.4v2.1h-0.4c-2.6,0-4.5,1.4-5.8,2.8v9.2h3.2
		v1.7h-8.2V351.9z"/>
	<path class="st9" d="M267.7,360.2l0.6-1.5c0.8,0.5,1.6,0.9,2.7,0.9c1.5,0,2.6-0.8,3.2-2.4l1.3-3.5h-1.7l-4.6-13.7h-2.3v-1.8h7.4
		v1.7h-2.9l4.3,13.3l4.9-13.3h-2.9v-1.7h7.3v1.8h-2.3l-6.7,17.8c-0.8,2.2-2.4,3.6-4.8,3.6C269.8,361.3,268.7,360.8,267.7,360.2z"/>
</g>
<g>
	<circle class="st10" cx="156.3" cy="132.9" r="102.6"/>
	<path class="st11" d="M259,136.9c-0.1-0.1-0.1-0.1-0.2-0.2c-0.3-0.3-0.5-0.5-0.8-0.8c-0.3-0.3-0.5-0.5-0.8-0.8
		c-0.3-0.3-0.5-0.5-0.8-0.8c-0.3-0.3-0.5-0.5-0.8-0.8c-0.3-0.3-0.5-0.5-0.8-0.8c-0.3-0.3-0.5-0.5-0.8-0.8c-0.3-0.3-0.5-0.5-0.8-0.8
		c-0.3-0.3-0.5-0.5-0.8-0.8c-0.3-0.3-0.5-0.5-0.8-0.8c-0.3-0.3-0.5-0.5-0.8-0.8c-0.3-0.3-0.5-0.5-0.8-0.8c-0.3-0.3-0.5-0.5-0.8-0.8
		c-0.3-0.3-0.5-0.5-0.8-0.8c-0.3-0.3-0.5-0.5-0.8-0.8c-0.3-0.3-0.5-0.5-0.8-0.8c-0.3-0.3-0.5-0.5-0.8-0.8c-0.3-0.3-0.5-0.5-0.8-0.8
		c-0.3-0.3-0.5-0.5-0.8-0.8c-0.3-0.3-0.5-0.5-0.8-0.8c-0.3-0.3-0.5-0.5-0.8-0.8c-0.3-0.3-0.5-0.5-0.8-0.8c-0.3-0.3-0.5-0.5-0.8-0.8
		c-0.3-0.3-0.5-0.5-0.8-0.8c-0.3-0.3-0.5-0.5-0.8-0.8c-0.3-0.3-0.5-0.5-0.8-0.8c-0.3-0.3-0.5-0.5-0.8-0.8c-0.3-0.3-0.5-0.5-0.8-0.8
		c-0.3-0.3-0.5-0.5-0.8-0.8c-0.3-0.3-0.5-0.5-0.8-0.8c-0.3-0.3-0.5-0.5-0.8-0.8c-0.3-0.3-0.5-0.5-0.8-0.8c-0.3-0.3-0.5-0.5-0.8-0.8
		c-0.3-0.3-0.5-0.5-0.8-0.8c-0.3-0.3-0.5-0.5-0.8-0.8c-0.3-0.3-0.5-0.5-0.8-0.8c-0.3-0.3-0.5-0.5-0.8-0.8c-0.3-0.3-0.5-0.5-0.8-0.8
		c-0.3-0.3-0.5-0.5-0.8-0.8c-0.3-0.3-0.5-0.5-0.8-0.8c-0.3-0.3-0.5-0.5-0.8-0.8c-0.3-0.3-0.5-0.5-0.8-0.8c-0.3-0.3-0.5-0.5-0.8-0.8
		c-0.3-0.3-0.5-0.5-0.8-0.8c-0.3-0.3-0.5-0.5-0.8-0.8c-0.3-0.3-0.5-0.5-0.8-0.8c-0.3-0.3-0.5-0.5-0.8-0.8c-0.3-0.3-0.5-0.5-0.8-0.8
		c-0.3-0.3-0.5-0.5-0.8-0.8c-0.3-0.3-0.5-0.5-0.8-0.8c-0.3-0.3-0.5-0.5-0.8-0.8c-0.3-0.3-0.5-0.5-0.8-0.8c-0.3-0.3-0.5-0.5-0.8-0.8
		c-0.3-0.3-0.5-0.5-0.8-0.8c-0.3-0.3-0.5-0.5-0.8-0.8c-0.3-0.3-0.5-0.5-0.8-0.8c-0.3-0.3-0.5-0.5-0.8-0.8c-0.3-0.3-0.5-0.5-0.8-0.8
		c-0.3-0.3-0.5-0.5-0.8-0.8c-0.3-0.3-0.5-0.5-0.8-0.8c-0.3-0.3-0.5-0.5-0.8-0.8c-0.3-0.3-0.5-0.5-0.8-0.8c-0.3-0.3-0.5-0.5-0.8-0.8
		c-0.3-0.3-0.5-0.5-0.8-0.8c-0.3-0.3-0.5-0.5-0.8-0.8c-0.3-0.3-0.5-0.5-0.8-0.8c-0.3-0.3-0.5-0.5-0.8-0.8c-0.3-0.3-0.5-0.5-0.8-0.8
		c-0.3-0.3-0.5-0.5-0.8-0.8c-5.4-5.7-13.2-7.4-22.1-4.8c-13.4,4-15.8,4.3-25,3c-15.4-2.2-26.4-12.4-41.3-4
		c-14.9,8.4-18.8,28.7-7.9,52c10.9,23.3,7.4,52,14.4,62.4c1.2,1.8,2.4,3.2,3.5,4.3c0.3,0.3,0.5,0.6,0.8,0.8c0.3,0.3,0.5,0.6,0.8,0.8
		c0.3,0.3,0.5,0.6,0.8,0.8c0.3,0.3,0.5,0.6,0.8,0.8c0.3,0.3,0.5,0.6,0.8,0.8c0.3,0.3,0.5,0.6,0.8,0.8c0.3,0.3,0.5,0.6,0.8,0.8
		c0.3,0.3,0.5,0.6,0.8,0.8c0.3,0.3,0.5,0.6,0.8,0.8c0.3,0.3,0.5,0.6,0.8,0.8c0.3,0.3,0.5,0.6,0.8,0.8c0.3,0.3,0.5,0.6,0.8,0.8
		c0.3,0.3,0.5,0.6,0.8,0.8c0.3,0.3,0.5,0.6,0.8,0.8c0.3,0.3,0.5,0.6,0.8,0.8c0.3,0.3,0.5,0.6,0.8,0.8c0.3,0.3,0.5,0.6,0.8,0.8
		c0.3,0.3,0.5,0.6,0.8,0.8c0.3,0.3,0.5,0.6,0.8,0.8c0.3,0.3,0.5,0.6,0.8,0.8c0.3,0.3,0.5,0.6,0.8,0.8c0.3,0.3,0.5,0.6,0.8,0.8
		c0.3,0.3,0.5,0.6,0.8,0.8c0.3,0.3,0.5,0.6,0.8,0.8c0.3,0.3,0.5,0.6,0.8,0.8c0.3,0.3,0.5,0.6,0.8,0.8c0.3,0.3,0.5,0.6,0.8,0.8
		c0.3,0.3,0.5,0.6,0.8,0.8c0.3,0.3,0.5,0.6,0.8,0.8c0.3,0.3,0.5,0.6,0.8,0.8c0.3,0.3,0.5,0.6,0.8,0.8c0.3,0.3,0.5,0.6,0.8,0.8
		c0.3,0.3,0.5,0.6,0.8,0.8c0.3,0.3,0.5,0.6,0.8,0.8c0.3,0.3,0.5,0.6,0.8,0.8c0.3,0.3,0.5,0.6,0.8,0.8c0.3,0.3,0.5,0.6,0.8,0.8
		c0.3,0.3,0.5,0.6,0.8,0.8c0.3,0.3,0.5,0.6,0.8,0.8c0.3,0.3,0.5,0.6,0.8,0.8c0.3,0.3,0.5,0.6,0.8,0.8c0.3,0.3,0.5,0.6,0.8,0.8
		c0.3,0.3,0.5,0.6,0.8,0.8c0.3,0.3,0.5,0.6,0.8,0.8c0.3,0.3,0.5,0.6,0.8,0.8c0.3,0.3,0.5,0.6,0.8,0.8c0.3,0.3,0.5,0.6,0.8,0.8
		c0.3,0.3,0.5,0.6,0.8,0.8c0.3,0.3,0.5,0.6,0.8,0.8c0.2,0.2,0.3,0.4,0.5,0.5C216.3,229.7,256.2,188.2,259,136.9z"/>
	<path class="st4" d="M181.3,77.6c-13.3,3.9-15.7,4.3-24.8,2.9c-15.3-2.2-26.2-12.3-41-3.9c-14.7,8.3-18.7,28.5-7.9,51.6
		c10.8,23.1,7.4,51.6,14.2,61.9c6.9,10.3,13.3,9.3,19.6-7.9c6.4-17.2,7.8-25,14.9-24.5c7.2,0.5,12.1,19.1,16,30.9
		c3.9,11.8,15.7,12.3,19.1-4.9c3.4-17.2,5.4-33.2,12.3-48.3c6.9-15.1,9.3-27.3,5.4-41.6C205.4,79.5,194.6,73.7,181.3,77.6z"/>
</g>
</svg>
