<?xml version="1.0" encoding="utf-8"?>
<!-- Generator: Adobe Illustrator 20.1.0, SVG Export Plug-In . SVG Version: 6.00 Build 0)  -->
<svg version="1.1" id="Layer_1" xmlns="http://www.w3.org/2000/svg" xmlns:xlink="http://www.w3.org/1999/xlink" x="0px" y="0px"
	 viewBox="0 0 797.5 320" style="enable-background:new 0 0 797.5 320;" xml:space="preserve">
<style type="text/css">
	.st0{fill:#414042;}
	.st1{fill:#AB6CAD;}
	.st2{fill:#B29BCA;}
	.st3{fill:#9175B5;}
	.st4{fill:#FFFFFF;}
	.st5{fill:#828282;}
	.st6{fill:#00ACC1;}
	.st7{fill:#FFFFFF;stroke:#00ACC1;stroke-width:3;stroke-miterlimit:10;}
	.st8{fill:none;stroke:#00ACC1;stroke-width:3;stroke-miterlimit:10;}
	.st9{fill:#E6E7E8;}
	.st10{fill:#89D3E1;}
	.st11{fill:#13BCD4;}
	.st12{fill:#C6E0A6;}
	.st13{fill:#81C785;}
	.st14{fill:#FACDD2;}
	.st15{fill:#EF9A9B;}
	.st16{fill:#1A92D1;}
	.st17{fill:#086DB6;}
	.st18{fill:#4DAF4E;}
	.st19{fill:#783393;}
	.st20{fill:#F06492;}
	.st21{fill:#E71F64;}
	.st22{fill:#4EAF4C;}
	.st23{fill:#FBCED2;}
	.st24{fill:#EF9A9C;}
	.st25{fill:#FBCFD3;}
	.st26{fill:#EF9A9D;}
	.st27{fill:#4FAF4A;}
	.st28{fill:#C6E1A7;}
	.st29{fill:#B19ACA;}
	.st30{fill:#FFFFFF;stroke:#BCBEC0;stroke-width:3;stroke-miterlimit:10;}
	.st31{fill:none;stroke:#BCBEC0;stroke-width:3;stroke-miterlimit:10;}
	.st32{fill:#BCBEC0;}
	.st33{fill:#424142;}
	.st34{fill:#FFFFFF;stroke:#FFFFFF;stroke-miterlimit:10;}
</style>
<g>
	<circle class="st10" cx="155" cy="160" r="103.3"/>
	<path class="st11" d="M258.3,164c-0.1-0.1-0.1-0.1-0.2-0.2c-0.3-0.3-0.5-0.5-0.8-0.8c-0.3-0.3-0.5-0.5-0.8-0.8
		c-0.3-0.3-0.5-0.5-0.8-0.8c-0.3-0.3-0.5-0.5-0.8-0.8c-0.3-0.3-0.5-0.5-0.8-0.8c-0.3-0.3-0.5-0.5-0.8-0.8c-0.3-0.3-0.5-0.5-0.8-0.8
		c-0.3-0.3-0.5-0.5-0.8-0.8c-0.3-0.3-0.5-0.5-0.8-0.8c-0.3-0.3-0.5-0.5-0.8-0.8c-0.3-0.3-0.5-0.5-0.8-0.8c-0.3-0.3-0.5-0.5-0.8-0.8
		c-0.3-0.3-0.5-0.5-0.8-0.8c-0.3-0.3-0.5-0.5-0.8-0.8c-0.3-0.3-0.5-0.5-0.8-0.8c-0.3-0.3-0.5-0.5-0.8-0.8c-0.3-0.3-0.5-0.5-0.8-0.8
		c-0.3-0.3-0.5-0.5-0.8-0.8c-0.3-0.3-0.5-0.5-0.8-0.8c-0.3-0.3-0.5-0.5-0.8-0.8c-0.3-0.3-0.5-0.5-0.8-0.8c-0.3-0.3-0.5-0.5-0.8-0.8
		c-0.3-0.3-0.5-0.5-0.8-0.8c-0.3-0.3-0.5-0.5-0.8-0.8c-0.3-0.3-0.5-0.5-0.8-0.8c-0.3-0.3-0.5-0.5-0.8-0.8c-0.3-0.3-0.5-0.5-0.8-0.8
		c-0.3-0.3-0.5-0.5-0.8-0.8c-0.3-0.3-0.5-0.5-0.8-0.8c-0.3-0.3-0.5-0.5-0.8-0.8c-0.3-0.3-0.5-0.5-0.8-0.8c-0.3-0.3-0.5-0.5-0.8-0.8
		c-0.3-0.3-0.5-0.5-0.8-0.8c-0.3-0.3-0.5-0.5-0.8-0.8c-0.3-0.3-0.5-0.5-0.8-0.8c-0.3-0.3-0.5-0.5-0.8-0.8c-0.3-0.3-0.5-0.5-0.8-0.8
		c-0.3-0.3-0.5-0.5-0.8-0.8c-0.3-0.3-0.5-0.5-0.8-0.8c-0.3-0.3-0.5-0.5-0.8-0.8c-0.3-0.3-0.5-0.5-0.8-0.8c-0.3-0.3-0.5-0.5-0.8-0.8
		c-0.3-0.3-0.5-0.5-0.8-0.8c-0.3-0.3-0.5-0.5-0.8-0.8c-0.3-0.3-0.5-0.5-0.8-0.8c-0.3-0.3-0.5-0.5-0.8-0.8c-0.3-0.3-0.5-0.5-0.8-0.8
		c-0.3-0.3-0.5-0.5-0.8-0.8c-0.3-0.3-0.5-0.5-0.8-0.8c-0.3-0.3-0.5-0.5-0.8-0.8c-0.3-0.3-0.5-0.5-0.8-0.8c-0.3-0.3-0.5-0.5-0.8-0.8
		c-0.3-0.3-0.5-0.5-0.8-0.8c-0.3-0.3-0.5-0.5-0.8-0.8c-0.3-0.3-0.5-0.5-0.8-0.8c-0.3-0.3-0.5-0.5-0.8-0.8c-0.3-0.3-0.5-0.5-0.8-0.8
		c-0.3-0.3-0.5-0.5-0.8-0.8c-0.3-0.3-0.5-0.5-0.8-0.8c-0.3-0.3-0.5-0.5-0.8-0.8c-0.3-0.3-0.5-0.5-0.8-0.8c-0.3-0.3-0.5-0.5-0.8-0.8
		c-0.3-0.3-0.5-0.5-0.8-0.8c-0.3-0.3-0.5-0.5-0.8-0.8c-0.3-0.3-0.5-0.5-0.8-0.8c-0.3-0.3-0.5-0.5-0.8-0.8c-0.3-0.3-0.5-0.5-0.8-0.8
		c-0.3-0.3-0.5-0.5-0.8-0.8c-5.4-5.7-13.3-7.5-22.2-4.8c-13.5,4-15.9,4.3-25.2,3c-15.5-2.2-26.6-12.5-41.6-4
		c-14.9,8.5-18.9,28.9-8,52.3c11,23.4,7.5,52.3,14.4,62.8c1.2,1.8,2.4,3.3,3.6,4.3c0.3,0.3,0.5,0.6,0.8,0.8c0.3,0.3,0.5,0.6,0.8,0.8
		c0.3,0.3,0.5,0.6,0.8,0.8c0.3,0.3,0.5,0.6,0.8,0.8c0.3,0.3,0.5,0.6,0.8,0.8c0.3,0.3,0.5,0.6,0.8,0.8c0.3,0.3,0.5,0.6,0.8,0.8
		c0.3,0.3,0.5,0.6,0.8,0.8c0.3,0.3,0.5,0.6,0.8,0.8c0.3,0.3,0.5,0.6,0.8,0.8c0.3,0.3,0.5,0.6,0.8,0.8c0.3,0.3,0.5,0.6,0.8,0.8
		c0.3,0.3,0.5,0.6,0.8,0.8c0.3,0.3,0.5,0.6,0.8,0.8c0.3,0.3,0.5,0.6,0.8,0.8c0.3,0.3,0.5,0.6,0.8,0.8c0.3,0.3,0.5,0.6,0.8,0.8
		c0.3,0.3,0.5,0.6,0.8,0.8c0.3,0.3,0.5,0.6,0.8,0.8c0.3,0.3,0.5,0.6,0.8,0.8c0.3,0.3,0.5,0.6,0.8,0.8c0.3,0.3,0.5,0.6,0.8,0.8
		c0.3,0.3,0.5,0.6,0.8,0.8c0.3,0.3,0.5,0.6,0.8,0.8c0.3,0.3,0.5,0.6,0.8,0.8c0.3,0.3,0.5,0.6,0.8,0.8c0.3,0.3,0.5,0.6,0.8,0.8
		c0.3,0.3,0.5,0.6,0.8,0.8c0.3,0.3,0.5,0.6,0.8,0.8c0.3,0.3,0.5,0.6,0.8,0.8c0.3,0.3,0.5,0.6,0.8,0.8c0.3,0.3,0.5,0.6,0.8,0.8
		c0.3,0.3,0.5,0.6,0.8,0.8c0.3,0.3,0.5,0.6,0.8,0.8c0.3,0.3,0.5,0.6,0.8,0.8c0.3,0.3,0.5,0.6,0.8,0.8c0.3,0.3,0.5,0.6,0.8,0.8
		c0.3,0.3,0.5,0.6,0.8,0.8c0.3,0.3,0.5,0.6,0.8,0.8c0.3,0.3,0.5,0.6,0.8,0.8c0.3,0.3,0.5,0.6,0.8,0.8c0.3,0.3,0.5,0.6,0.8,0.8
		c0.3,0.3,0.5,0.6,0.8,0.8c0.3,0.3,0.5,0.6,0.8,0.8c0.3,0.3,0.5,0.6,0.8,0.8c0.3,0.3,0.5,0.6,0.8,0.8c0.3,0.3,0.5,0.6,0.8,0.8
		c0.3,0.3,0.5,0.6,0.8,0.8c0.3,0.3,0.5,0.6,0.8,0.8c0.2,0.2,0.4,0.4,0.5,0.5C215.4,257.4,255.5,215.6,258.3,164z"/>
	<path class="st4" d="M180.1,104.3c-13.3,4-15.8,4.3-25,3c-15.4-2.2-26.4-12.4-41.2-4c-14.8,8.4-18.8,28.7-7.9,51.9
		c10.9,23.2,7.4,51.9,14.3,62.3c6.9,10.4,13.3,9.4,19.8-7.9c6.4-17.3,7.8-25.2,15-24.7c7.2,0.5,12.1,19.3,16.1,31.1
		c4,11.9,15.8,12.4,19.3-4.9c3.5-17.3,5.4-33.4,12.4-48.6c6.9-15.2,9.4-27.5,5.4-41.8C204.3,106.2,193.5,100.3,180.1,104.3z"/>
</g>
<g>
	<path class="st9" d="M287.7,155.2H303v-81h-15.3v-4.8h39.7c23.5,0,47.1,13.4,47.1,45.3c0,31.8-23.6,45.2-47.1,45.2h-39.7V155.2z
		 M327.7,155.2c23.5,0,41.3-14.6,41.3-40.4c0-26-17.8-40.6-41.3-40.6h-19.3v81H327.7z"/>
	<path class="st9" d="M382.2,143.8c0-16.2,16.9-19.2,27.8-19.2h15.7V118c0-12.9-4.8-17.4-16.8-17.4c-8,0-15.7,2.1-21.7,4.5v-4.6
		c6.7-2.7,14.6-4.5,22.3-4.5c15.2,0,21.2,6.8,21.2,21.1v38.5h12.3v4.5h-17.4v-8.5c-5.5,4.5-14.4,10.1-24.4,10.1
		C391.3,161.6,382.2,155.8,382.2,143.8z M425.7,146.2v-17.1H410c-9.8,0-22.6,2.2-22.6,14.7c0,8.9,6.7,13.2,14.7,13.2
		C411.6,157,420.1,151.1,425.7,146.2z"/>
	<path class="st9" d="M449.6,102.1h-10v-4.5h28.7v4.5h-13.5l15.9,49.6l19.2-54.1h4.6l19.2,54.1l15.9-49.6h-13.5v-4.5h28.7v4.5h-10
		l-19,57.9h-3.9l-19.8-54.8L472.5,160h-3.9L449.6,102.1z"/>
	<path class="st9" d="M547.7,157.9v-14.4h4.6v11c5.1,1.5,11.3,2.5,16.9,2.5c9.7,0,18.9-3,18.9-11.9c0-18.4-38.9-10-38.9-32.7
		c0-10.3,7.9-16.5,21.8-16.5c6.5,0,13.7,1.3,19.2,3.1v14.3h-4.8v-10.8c-3.9-1-9.5-1.9-14.4-1.9c-10.7,0-17.1,4.3-17.1,11.7
		c0,18.4,38.9,9.7,38.9,32.7c0,11.9-10.5,16.6-23.3,16.6C562.4,161.6,554.4,160.1,547.7,157.9z"/>
	<path class="st9" d="M601.5,128.8c0-20.9,13.2-32.8,29.7-32.8c16.6,0,29.7,11.9,29.7,32.8c0,21.1-13.2,32.8-29.7,32.8
		S601.5,149.9,601.5,128.8z M655.7,128.8c0-17.7-9.8-28.2-24.5-28.2c-14.7,0-24.5,10.5-24.5,28.2c0,17.7,9.8,28.2,24.5,28.2
		C645.9,157,655.7,146.5,655.7,128.8z"/>
	<path class="st9" d="M667.9,155.5h12.6v-53.5h-12.6v-4.5h17.7V108c7.7-7.4,16.8-12,25.8-12c11.1,0,18.1,7,18.1,20.6v38.9h12.6v4.5
		h-30.3v-4.5h12.6v-38c0-10-3.6-16.9-13.8-16.9c-9.8,0-18.6,6.4-25.1,12.6v42.3h12.6v4.5h-30.3V155.5z"/>
	<path class="st9" d="M282.6,237.4h6.5l6.1-34.2h-6.5l0.5-3.4h31.9l-2,11.7h-3.8l1.5-8.3h-17.5l-2.8,16.1H313l-0.5,3.4h-16.7
		l-2.6,14.8h7.5l-0.6,3.4H282L282.6,237.4z"/>
	<path class="st9" d="M319.5,228.5c0-10.1,7-17.1,15.1-17.1c4.8,0,8.1,2.7,9.6,6.5l1-5.7h4l-4,22.8c-0.3,2,0.2,3.2,2.2,3.2
		c1.4,0,3-0.6,4-1l-0.5,3.3c-1.3,0.5-2.9,0.9-4.4,0.9c-3.5,0-5.2-2-4.9-5.6c-2.6,3.4-6.3,5.7-10.8,5.7
		C324.2,241.5,319.5,236.9,319.5,228.5z M343,224.2c0-5.6-2.8-9.6-8-9.6c-6.4,0-11.5,5.9-11.5,13.8c0,6.2,3.2,9.8,8,9.8
		C338.1,238.3,343,231.6,343,224.2z"/>
	<path class="st9" d="M361.2,215.4h-5.3l0.6-3.2h9l-0.8,4.6c2.5-2.4,6.3-5.3,10.8-5.3c3.5,0,6.2,1.9,6.6,5.7
		c2.5-2.4,6.5-5.7,11.2-5.7c4.5,0,7.5,3,6.5,9.1l-2.5,14.4c-0.3,2,0.3,3.2,2.3,3.2c1.4,0,3-0.6,3.9-1l-0.5,3.3
		c-1.3,0.5-2.9,0.9-4.5,0.9c-4.2,0-5.7-2.9-5-6.7l2.5-14c0.6-3.6-0.5-5.9-3.6-5.9c-3.6,0-7.4,3-10.3,5.6l-3.5,20.4h-4l3.6-20
		c0.6-3.6-0.4-5.9-3.6-5.9c-3.6,0-7.4,3-10.4,5.7l-3.6,20.3h-3.8L361.2,215.4z"/>
	<path class="st9" d="M409.7,234.7l3.4-19.2h-5.3l0.5-3.2h9.2l-4,22.8c-0.3,2,0.2,3.2,2.2,3.2c1.4,0,3-0.6,4-1l-0.6,3.3
		c-1.3,0.5-2.8,0.9-4.4,0.9C410.4,241.4,409.1,238.5,409.7,234.7z M413.6,201.7c0-1.7,1.4-3,3.1-3s3.1,1.3,3.1,3
		c0,1.7-1.4,3.1-3.1,3.1S413.6,203.4,413.6,201.7z"/>
	<path class="st9" d="M424.7,234.7l6.7-38.3h-5.3l0.6-3.2h9.2l-7.4,41.8c-0.3,2,0.3,3.2,2.2,3.2c1.5,0,3-0.6,4-1l-0.5,3.3
		c-1.3,0.5-2.9,0.9-4.5,0.9C425.5,241.4,424.1,238.5,424.7,234.7z"/>
	<path class="st9" d="M428.8,252.1l1.7-2.4c1.1,0.9,2.8,2,4.8,2c10.6,0,27-26.8,27-34.4c0-1.7-0.7-2.3-2-2.3c-1.2,0-2.6,0.5-4.2,1.7
		l-1.4-2.4c1.7-1.4,4-2.7,6.6-2.7c3.6,0,4.9,2.6,4.9,5.2c0,9.1-17.1,38.1-30.5,38.1C432.7,254.9,430.4,253.5,428.8,252.1z
		 M442.8,215.4h-5.1l0.6-3.2h8l3.2,28.5h-3.8L442.8,215.4z"/>
	<path class="st9" d="M483.1,237.4h6.5l6.1-34.2h-6.5l0.5-3.4h17.9c10.5,0,18.4,5.2,18.4,17.6c0,14.3-10.8,23.3-25,23.3h-18.6
		L483.1,237.4z M501.1,237.4c12,0,20.7-8,20.7-19.9c0-9.3-5.2-14.3-14.6-14.3h-7.5l-6,34.2H501.1z"/>
	<path class="st9" d="M530.1,228.7c0-10,7.2-17.3,15.7-17.3c5.2,0,8,2.7,8,6.7c0,7.8-10.7,10.4-19.8,10.7c0.1,6.3,3.2,9.4,8.9,9.4
		c3.4,0,6.5-1.1,9-2.4l-0.7,3.6c-2.2,1.1-5.4,2-8.7,2C535.1,241.5,530.1,237.1,530.1,228.7z M550.3,218.2c0-2-1.2-3.6-4.5-3.6
		c-5.6,0-10.4,4.6-11.5,11.1C541.8,225.5,550.3,223.4,550.3,218.2z"/>
	<path class="st9" d="M563.9,215.4h-5.3l0.6-3.2h9.1l-0.8,4.8c3-2.5,7.5-5.5,11.9-5.5c5,0,7.8,3.6,6.7,9.8l-2.4,13.8
		c-0.4,2,0.2,3.2,2.2,3.2c1.4,0,3-0.6,4-1l-0.6,3.3c-1.3,0.5-2.9,0.9-4.5,0.9c-4.2,0-5.6-2.9-4.9-6.7l2.3-13.3
		c0.7-3.7-0.1-6.6-3.8-6.6c-4,0-8.3,3.2-11.5,5.9l-3.5,20h-3.9L563.9,215.4z"/>
	<path class="st9" d="M596.2,233.1l3-17.8h-4.8l0.6-3.2h4.8l1.3-7.4h4l-1.3,7.4h8.9l-0.5,3.2h-8.9l-3.1,17.8
		c-0.7,3.6,0.7,5.1,3.9,5.1c2.6,0,4.6-1,5.9-1.5l-0.6,3.3c-1.5,0.6-3.8,1.4-6.4,1.4C599.7,241.5,595,240,596.2,233.1z"/>
	<path class="st9" d="M616.6,234.7l3.4-19.2h-5.3l0.5-3.2h9.2l-4,22.8c-0.3,2,0.2,3.2,2.2,3.2c1.4,0,3-0.6,4-1l-0.6,3.3
		c-1.3,0.5-2.8,0.9-4.4,0.9C617.4,241.4,616,238.5,616.6,234.7z M620.6,201.7c0-1.7,1.4-3,3.1-3s3.1,1.3,3.1,3
		c0,1.7-1.4,3.1-3.1,3.1S620.6,203.4,620.6,201.7z"/>
	<path class="st9" d="M629.2,239.7l0.5-3.2c2.6,1,5.9,1.7,8.7,1.7c4.6,0,7.2-2,7.2-4.8c0-6.3-13.1-5.3-13.1-14.1c0-4.2,3-8,10-8
		c3.2,0,6.2,0.8,8.3,1.5l-0.5,3c-2.2-0.7-4.9-1.5-7.6-1.5c-5,0-6.4,2.5-6.4,4.5c0,6.2,13.1,5.1,13.1,14.1c0,4.4-3.2,8.3-10.9,8.3
		C635.2,241.5,631.8,240.7,629.2,239.7z"/>
	<path class="st9" d="M657.3,233.1l3-17.8h-4.8l0.6-3.2h4.8l1.3-7.4h4l-1.3,7.4h8.9l-0.5,3.2h-8.9l-3.1,17.8
		c-0.7,3.6,0.7,5.1,3.9,5.1c2.6,0,4.6-1,5.9-1.5l-0.6,3.3c-1.5,0.6-3.8,1.4-6.4,1.4C660.8,241.5,656.1,240,657.3,233.1z"/>
	<path class="st9" d="M681.4,215.4h-5.2l0.5-3.2h9l-1,5.8c2.8-3.3,6.9-6.5,10.9-6.5c2.6,0,4.4,1.3,4.4,4.3c0,1.3-0.3,2.8-0.9,4.2
		l-3.5-0.2c0.3-1.1,0.6-2.2,0.6-3c0-1.3-0.6-1.7-1.8-1.7c-4,0-8.9,5.3-10.3,6.9l-3.3,18.9H677L681.4,215.4z"/>
	<path class="st9" d="M692,252.1l1.7-2.4c1.1,0.9,2.8,2,4.8,2c10.6,0,27-26.8,27-34.4c0-1.7-0.7-2.3-2-2.3c-1.2,0-2.6,0.5-4.2,1.7
		l-1.4-2.4c1.7-1.4,4-2.7,6.6-2.7c3.6,0,4.9,2.6,4.9,5.2c0,9.1-17.1,38.1-30.5,38.1C695.9,254.9,693.6,253.5,692,252.1z M706,215.4
		h-5.1l0.6-3.2h8l3.2,28.5h-3.8L706,215.4z"/>
</g>
</svg>
